<svg width="27" height="21" viewBox="0 0 27 21" fill="none" xmlns="http://www.w3.org/2000/svg">
<path d="M21.9675 0.841832C22.4165 0.414353 23.014 0.178025 23.634 0.182716C24.2539 0.187407 24.8478 0.43275 25.2903 0.866975C25.7328 1.3012 25.9893 1.89034 26.0057 2.51009C26.022 3.12983 25.797 3.73171 25.3781 4.18871L12.66 20.0943C12.4413 20.3299 12.1773 20.5189 11.8839 20.6501C11.5905 20.7813 11.2736 20.852 10.9523 20.858C10.6309 20.8639 10.3116 20.805 10.0136 20.6848C9.71549 20.5645 9.44473 20.3854 9.21747 20.1581L0.783344 11.724C0.548467 11.5051 0.360079 11.2412 0.229417 10.9479C0.0987554 10.6547 0.0284965 10.3381 0.022833 10.0171C0.0171695 9.69613 0.0762175 9.37729 0.196453 9.07962C0.316689 8.78194 0.49565 8.51153 0.72266 8.28452C0.949669 8.05751 1.22008 7.87855 1.51775 7.75832C1.81543 7.63808 2.13427 7.57903 2.45526 7.5847C2.77625 7.59036 3.09281 7.66062 3.38606 7.79128C3.67931 7.92194 3.94323 8.11033 4.16209 8.34521L10.8367 15.0166L21.9069 0.911958C21.9268 0.887417 21.9481 0.864005 21.9707 0.841832H21.9675Z" fill="#F1ECFF"/>
</svg>
