<svg width="219" height="76" viewBox="0 0 219 76" fill="none" xmlns="http://www.w3.org/2000/svg">
<path d="M22.1986 46.5643C22.3406 46.4908 22.4982 46.4525 22.6581 46.4525H38.9081C39.9349 46.4525 40.2949 47.8147 39.4021 48.3219L32.2609 52.3789C32.1103 52.4645 31.9401 52.5095 31.7669 52.5095H14.8167C13.769 52.5095 13.4266 51.1028 14.3572 50.6213L22.1986 46.5643Z" fill="#3100F5"/>
<path d="M32.8667 53.9527C32.8667 53.5951 33.0576 53.2647 33.3675 53.0862L40.5658 48.9387C41.2324 48.5546 42.065 49.0358 42.065 49.8052V68.0183C42.065 68.3325 41.9174 68.6284 41.6663 68.8173L34.468 74.2345C33.809 74.7304 32.8667 74.2603 32.8667 73.4355V53.9527Z" fill="#FC6E86"/>
<rect x="10.498" y="53.3746" width="21.5324" height="22.0648" rx="2" fill="#FDE933"/>
<path d="M11.7007 23.6617C11.8428 23.5882 12.0004 23.5499 12.1603 23.5499H28.4103C29.4371 23.5499 29.7971 24.9122 28.9043 25.4194L21.7631 29.4764C21.6125 29.5619 21.4423 29.6069 21.2691 29.6069H4.31892C3.27116 29.6069 2.92881 28.2002 3.8594 27.7187L11.7007 23.6617Z" fill="#FC6E86"/>
<path d="M22.3687 31.0501C22.3687 30.6925 22.5596 30.3622 22.8694 30.1837L30.0677 26.0361C30.7344 25.652 31.567 26.1332 31.567 26.9026V45.1157C31.567 45.4299 31.4193 45.7258 31.1683 45.9147L23.97 51.3319C23.3109 51.8279 22.3687 51.3577 22.3687 50.5329V31.0501Z" fill="#FDE933"/>
<rect y="30.4723" width="21.5324" height="22.0648" rx="2" fill="#3100F5"/>
<path d="M22.2 0.711833C22.342 0.638349 22.4996 0.599998 22.6595 0.599998H38.9096C39.9364 0.599998 40.2963 1.96229 39.4036 2.46948L32.2623 6.52649C32.1117 6.61203 31.9415 6.657 31.7684 6.657H14.8182C13.7704 6.657 13.4281 5.25031 14.3587 4.76884L22.2 0.711833Z" fill="#FDE933"/>
<path d="M32.8687 8.1002C32.8687 7.74262 33.0596 7.41226 33.3694 7.23374L40.5677 3.08622C41.2344 2.7021 42.067 3.18327 42.067 3.95268V22.1658C42.067 22.48 41.9193 22.7759 41.6683 22.9648L34.47 28.382C33.8109 28.8779 32.8687 28.4078 32.8687 27.583V8.1002Z" fill="#3100F5"/>
<rect x="10.5" y="7.52234" width="21.5324" height="22.0648" rx="2" fill="#FC6E86"/>
<path d="M67.934 43.074H61.818L60.806 46H57.572L63.094 30.622H66.68L72.202 46H68.946L67.934 43.074ZM67.098 40.61L64.876 34.186L62.654 40.61H67.098ZM84.386 29.72V46H81.306V29.72H84.386ZM99.2431 33.614C100.152 33.614 100.952 33.7973 101.641 34.164C102.33 34.516 102.873 34.978 103.269 35.55V33.812H106.371V46.088C106.371 47.2173 106.144 48.222 105.689 49.102C105.234 49.9967 104.552 50.7007 103.643 51.214C102.734 51.742 101.634 52.006 100.343 52.006C98.6124 52.006 97.1898 51.6027 96.0751 50.796C94.9751 49.9893 94.3518 48.8893 94.2051 47.496H97.2631C97.4244 48.0533 97.7691 48.4933 98.2971 48.816C98.8398 49.1533 99.4924 49.322 100.255 49.322C101.15 49.322 101.876 49.0507 102.433 48.508C102.99 47.98 103.269 47.1733 103.269 46.088V44.196C102.873 44.768 102.323 45.2447 101.619 45.626C100.93 46.0073 100.138 46.198 99.2431 46.198C98.2164 46.198 97.2778 45.934 96.4271 45.406C95.5764 44.878 94.9018 44.1373 94.4031 43.184C93.9191 42.216 93.6771 41.1087 93.6771 39.862C93.6771 38.63 93.9191 37.5373 94.4031 36.584C94.9018 35.6307 95.5691 34.8973 96.4051 34.384C97.2558 33.8707 98.2018 33.614 99.2431 33.614ZM103.269 39.906C103.269 39.158 103.122 38.52 102.829 37.992C102.536 37.4493 102.14 37.0387 101.641 36.76C101.142 36.4667 100.607 36.32 100.035 36.32C99.4631 36.32 98.9351 36.4593 98.4511 36.738C97.9671 37.0167 97.5711 37.4273 97.2631 37.97C96.9698 38.498 96.8231 39.1287 96.8231 39.862C96.8231 40.5953 96.9698 41.2407 97.2631 41.798C97.5711 42.3407 97.9671 42.7587 98.4511 43.052C98.9498 43.3453 99.4778 43.492 100.035 43.492C100.607 43.492 101.142 43.3527 101.641 43.074C102.14 42.7807 102.536 42.37 102.829 41.842C103.122 41.2993 103.269 40.654 103.269 39.906ZM121.831 46.198C120.658 46.198 119.602 45.9413 118.663 45.428C117.725 44.9 116.984 44.1593 116.441 43.206C115.913 42.2527 115.649 41.1527 115.649 39.906C115.649 38.6593 115.921 37.5593 116.463 36.606C117.021 35.6527 117.776 34.9193 118.729 34.406C119.683 33.878 120.746 33.614 121.919 33.614C123.093 33.614 124.156 33.878 125.109 34.406C126.063 34.9193 126.811 35.6527 127.353 36.606C127.911 37.5593 128.189 38.6593 128.189 39.906C128.189 41.1527 127.903 42.2527 127.331 43.206C126.774 44.1593 126.011 44.9 125.043 45.428C124.09 45.9413 123.019 46.198 121.831 46.198ZM121.831 43.514C122.389 43.514 122.909 43.382 123.393 43.118C123.892 42.8393 124.288 42.4287 124.581 41.886C124.875 41.3433 125.021 40.6833 125.021 39.906C125.021 38.7473 124.713 37.86 124.097 37.244C123.496 36.6133 122.755 36.298 121.875 36.298C120.995 36.298 120.255 36.6133 119.653 37.244C119.067 37.86 118.773 38.7473 118.773 39.906C118.773 41.0647 119.059 41.9593 119.631 42.59C120.218 43.206 120.951 43.514 121.831 43.514ZM136.741 38.3C136.741 36.7893 137.078 35.44 137.753 34.252C138.442 33.0493 139.373 32.118 140.547 31.458C141.735 30.7833 143.062 30.446 144.529 30.446C146.245 30.446 147.748 30.886 149.039 31.766C150.329 32.646 151.231 33.8633 151.745 35.418H148.203C147.851 34.6847 147.352 34.1347 146.707 33.768C146.076 33.4013 145.343 33.218 144.507 33.218C143.612 33.218 142.813 33.4307 142.109 33.856C141.419 34.2667 140.877 34.8533 140.481 35.616C140.099 36.3787 139.909 37.2733 139.909 38.3C139.909 39.312 140.099 40.2067 140.481 40.984C140.877 41.7467 141.419 42.3407 142.109 42.766C142.813 43.1767 143.612 43.382 144.507 43.382C145.343 43.382 146.076 43.1987 146.707 42.832C147.352 42.4507 147.851 41.8933 148.203 41.16H151.745C151.231 42.7293 150.329 43.954 149.039 44.834C147.763 45.6993 146.259 46.132 144.529 46.132C143.062 46.132 141.735 45.802 140.547 45.142C139.373 44.4673 138.442 43.536 137.753 42.348C137.078 41.16 136.741 39.8107 136.741 38.3ZM172.921 33.812V46H169.819V44.46C169.423 44.988 168.903 45.406 168.257 45.714C167.627 46.0073 166.937 46.154 166.189 46.154C165.236 46.154 164.393 45.956 163.659 45.56C162.926 45.1493 162.347 44.5553 161.921 43.778C161.511 42.986 161.305 42.0473 161.305 40.962V33.812H164.385V40.522C164.385 41.49 164.627 42.238 165.111 42.766C165.595 43.2793 166.255 43.536 167.091 43.536C167.942 43.536 168.609 43.2793 169.093 42.766C169.577 42.238 169.819 41.49 169.819 40.522V33.812H172.921ZM186.08 35.594C186.476 35.0073 187.019 34.5307 187.708 34.164C188.412 33.7973 189.212 33.614 190.106 33.614C191.148 33.614 192.086 33.8707 192.922 34.384C193.773 34.8973 194.44 35.6307 194.924 36.584C195.423 37.5227 195.672 38.6153 195.672 39.862C195.672 41.1087 195.423 42.216 194.924 43.184C194.44 44.1373 193.773 44.878 192.922 45.406C192.086 45.934 191.148 46.198 190.106 46.198C189.197 46.198 188.398 46.022 187.708 45.67C187.034 45.3033 186.491 44.834 186.08 44.262V46H183V29.72H186.08V35.594ZM192.526 39.862C192.526 39.1287 192.372 38.498 192.064 37.97C191.771 37.4273 191.375 37.0167 190.876 36.738C190.392 36.4593 189.864 36.32 189.292 36.32C188.735 36.32 188.207 36.4667 187.708 36.76C187.224 37.0387 186.828 37.4493 186.52 37.992C186.227 38.5347 186.08 39.1727 186.08 39.906C186.08 40.6393 186.227 41.2773 186.52 41.82C186.828 42.3627 187.224 42.7807 187.708 43.074C188.207 43.3527 188.735 43.492 189.292 43.492C189.864 43.492 190.392 43.3453 190.876 43.052C191.375 42.7587 191.771 42.3407 192.064 41.798C192.372 41.2553 192.526 40.61 192.526 39.862ZM216.28 39.642C216.28 40.082 216.251 40.478 216.192 40.83H207.282C207.356 41.71 207.664 42.3993 208.206 42.898C208.749 43.3967 209.416 43.646 210.208 43.646C211.352 43.646 212.166 43.1547 212.65 42.172H215.972C215.62 43.3453 214.946 44.3133 213.948 45.076C212.951 45.824 211.726 46.198 210.274 46.198C209.101 46.198 208.045 45.9413 207.106 45.428C206.182 44.9 205.456 44.1593 204.928 43.206C204.415 42.2527 204.158 41.1527 204.158 39.906C204.158 38.6447 204.415 37.5373 204.928 36.584C205.442 35.6307 206.16 34.8973 207.084 34.384C208.008 33.8707 209.072 33.614 210.274 33.614C211.433 33.614 212.467 33.8633 213.376 34.362C214.3 34.8607 215.012 35.572 215.51 36.496C216.024 37.4053 216.28 38.454 216.28 39.642ZM213.09 38.762C213.076 37.97 212.79 37.3393 212.232 36.87C211.675 36.386 210.993 36.144 210.186 36.144C209.424 36.144 208.778 36.3787 208.25 36.848C207.737 37.3027 207.422 37.9407 207.304 38.762H213.09Z" fill="#181818"/>
</svg>
