<svg width="549" height="323" viewBox="0 0 549 323" fill="none" xmlns="http://www.w3.org/2000/svg">
<path d="M89.2421 193.317C89.6587 193.108 90.118 193 90.5837 193H166.457C169.561 193 170.621 197.136 167.901 198.63L132.414 218.112C131.972 218.355 131.475 218.483 130.971 218.483H51.6184C48.4527 218.483 47.4453 214.215 50.2767 212.799L89.2421 193.317Z" fill="#3100F5"/>
<path d="M135.38 223.886C135.38 222.798 135.97 221.795 136.921 221.265L170.965 202.309C172.965 201.195 175.425 202.641 175.425 204.93V284.302C175.425 285.262 174.965 286.164 174.189 286.728L140.145 311.488C138.162 312.93 135.38 311.513 135.38 309.062V223.886Z" fill="#FC6E86"/>
<rect x="38" y="222.123" width="93.7399" height="92.8298" rx="10" fill="#FDE933"/>
<path d="M51.2421 96.8167C51.6587 96.6084 52.118 96.5 52.5837 96.5H128.457C131.561 96.5 132.621 100.636 129.901 102.13L94.4144 121.612C93.9719 121.855 93.4753 121.983 92.9706 121.983H13.6184C10.4527 121.983 9.44526 117.715 12.2767 116.299L51.2421 96.8167Z" fill="#FC6E86"/>
<path d="M97.3804 127.386C97.3804 126.298 97.9699 125.295 98.9209 124.765L132.965 105.809C134.965 104.695 137.425 106.141 137.425 108.43V187.802C137.425 188.762 136.965 189.664 136.189 190.228L102.145 214.988C100.162 216.43 97.3804 215.013 97.3804 212.562V127.386Z" fill="#FDE933"/>
<rect y="125.623" width="93.7399" height="92.8298" rx="10" fill="#3100F5"/>
<path d="M89.2421 0.316717C89.6587 0.108434 90.118 0 90.5837 0H166.457C169.561 0 170.621 4.13609 167.901 5.62974L132.414 25.1124C131.972 25.3553 131.475 25.4827 130.971 25.4827H51.6184C48.4527 25.4827 47.4453 21.2151 50.2767 19.7994L89.2421 0.316717Z" fill="#FDE933"/>
<path d="M135.38 30.8864C135.38 29.7979 135.97 28.7949 136.921 28.2653L170.965 9.30888C172.965 8.19545 175.425 9.64121 175.425 11.9299V91.3022C175.425 92.262 174.965 93.1639 174.189 93.7284L140.145 118.488C138.162 119.93 135.38 118.513 135.38 116.062V30.8864Z" fill="#3100F5"/>
<rect x="38" y="29.1231" width="93.7399" height="92.8298" rx="10" fill="#FC6E86"/>
<path d="M271.7 119.7H243.9L239.3 133H224.6L249.7 63.1H266L291.1 133H276.3L271.7 119.7ZM267.9 108.5L257.8 79.3L247.7 108.5H267.9ZM346.482 59V133H332.482V59H346.482ZM414.014 76.7C418.147 76.7 421.781 77.5333 424.914 79.2C428.047 80.8 430.514 82.9 432.314 85.5V77.6H446.414V133.4C446.414 138.533 445.381 143.1 443.314 147.1C441.247 151.167 438.147 154.367 434.014 156.7C429.881 159.1 424.881 160.3 419.014 160.3C411.147 160.3 404.681 158.467 399.614 154.8C394.614 151.133 391.781 146.133 391.114 139.8H405.014C405.747 142.333 407.314 144.333 409.714 145.8C412.181 147.333 415.147 148.1 418.614 148.1C422.681 148.1 425.981 146.867 428.514 144.4C431.047 142 432.314 138.333 432.314 133.4V124.8C430.514 127.4 428.014 129.567 424.814 131.3C421.681 133.033 418.081 133.9 414.014 133.9C409.347 133.9 405.081 132.7 401.214 130.3C397.347 127.9 394.281 124.533 392.014 120.2C389.814 115.8 388.714 110.767 388.714 105.1C388.714 99.5 389.814 94.5333 392.014 90.2C394.281 85.8667 397.314 82.5333 401.114 80.2C404.981 77.8667 409.281 76.7 414.014 76.7ZM432.314 105.3C432.314 101.9 431.647 99 430.314 96.6C428.981 94.1333 427.181 92.2667 424.914 91C422.647 89.6667 420.214 89 417.614 89C415.014 89 412.614 89.6333 410.414 90.9C408.214 92.1667 406.414 94.0333 405.014 96.5C403.681 98.9 403.014 101.767 403.014 105.1C403.014 108.433 403.681 111.367 405.014 113.9C406.414 116.367 408.214 118.267 410.414 119.6C412.681 120.933 415.081 121.6 417.614 121.6C420.214 121.6 422.647 120.967 424.914 119.7C427.181 118.367 428.981 116.5 430.314 114.1C431.647 111.633 432.314 108.7 432.314 105.3ZM516.688 133.9C511.354 133.9 506.554 132.733 502.288 130.4C498.021 128 494.654 124.633 492.188 120.3C489.788 115.967 488.588 110.967 488.588 105.3C488.588 99.6333 489.821 94.6333 492.288 90.3C494.821 85.9667 498.254 82.6333 502.588 80.3C506.921 77.9 511.754 76.7 517.088 76.7C522.421 76.7 527.254 77.9 531.588 80.3C535.921 82.6333 539.321 85.9667 541.788 90.3C544.321 94.6333 545.588 99.6333 545.588 105.3C545.588 110.967 544.288 115.967 541.687 120.3C539.154 124.633 535.688 128 531.288 130.4C526.954 132.733 522.088 133.9 516.688 133.9ZM516.688 121.7C519.221 121.7 521.588 121.1 523.788 119.9C526.054 118.633 527.854 116.767 529.188 114.3C530.521 111.833 531.188 108.833 531.188 105.3C531.188 100.033 529.788 96 526.988 93.2C524.254 90.3333 520.888 88.9 516.888 88.9C512.888 88.9 509.521 90.3333 506.788 93.2C504.121 96 502.788 100.033 502.788 105.3C502.788 110.567 504.088 114.633 506.688 117.5C509.354 120.3 512.688 121.7 516.688 121.7Z" fill="#ffffff"/>
<path d="M225.5 215C225.5 208.133 227.033 202 230.1 196.6C233.233 191.133 237.467 186.9 242.8 183.9C248.2 180.833 254.233 179.3 260.9 179.3C268.7 179.3 275.533 181.3 281.4 185.3C287.267 189.3 291.367 194.833 293.7 201.9H277.6C276 198.567 273.733 196.067 270.8 194.4C267.933 192.733 264.6 191.9 260.8 191.9C256.733 191.9 253.1 192.867 249.9 194.8C246.767 196.667 244.3 199.333 242.5 202.8C240.767 206.267 239.9 210.333 239.9 215C239.9 219.6 240.767 223.667 242.5 227.2C244.3 230.667 246.767 233.367 249.9 235.3C253.1 237.167 256.733 238.1 260.8 238.1C264.6 238.1 267.933 237.267 270.8 235.6C273.733 233.867 276 231.333 277.6 228H293.7C291.367 235.133 287.267 240.7 281.4 244.7C275.6 248.633 268.767 250.6 260.9 250.6C254.233 250.6 248.2 249.1 242.8 246.1C237.467 243.033 233.233 238.8 230.1 233.4C227.033 228 225.5 221.867 225.5 215ZM375.958 194.6V250H361.858V243C360.058 245.4 357.691 247.3 354.758 248.7C351.891 250.033 348.758 250.7 345.358 250.7C341.024 250.7 337.191 249.8 333.858 248C330.524 246.133 327.891 243.433 325.958 239.9C324.091 236.3 323.158 232.033 323.158 227.1V194.6H337.158V225.1C337.158 229.5 338.258 232.9 340.458 235.3C342.658 237.633 345.658 238.8 349.458 238.8C353.324 238.8 356.358 237.633 358.558 235.3C360.758 232.9 361.858 229.5 361.858 225.1V194.6H375.958ZM421.771 202.7C423.571 200.033 426.038 197.867 429.171 196.2C432.371 194.533 436.004 193.7 440.071 193.7C444.804 193.7 449.071 194.867 452.871 197.2C456.738 199.533 459.771 202.867 461.971 207.2C464.238 211.467 465.371 216.433 465.371 222.1C465.371 227.767 464.238 232.8 461.971 237.2C459.771 241.533 456.738 244.9 452.871 247.3C449.071 249.7 444.804 250.9 440.071 250.9C435.938 250.9 432.304 250.1 429.171 248.5C426.104 246.833 423.638 244.7 421.771 242.1V250H407.771V176H421.771V202.7ZM451.071 222.1C451.071 218.767 450.371 215.9 448.971 213.5C447.638 211.033 445.838 209.167 443.571 207.9C441.371 206.633 438.971 206 436.371 206C433.838 206 431.438 206.667 429.171 208C426.971 209.267 425.171 211.133 423.771 213.6C422.438 216.067 421.771 218.967 421.771 222.3C421.771 225.633 422.438 228.533 423.771 231C425.171 233.467 426.971 235.367 429.171 236.7C431.438 237.967 433.838 238.6 436.371 238.6C438.971 238.6 441.371 237.933 443.571 236.6C445.838 235.267 447.638 233.367 448.971 230.9C450.371 228.433 451.071 225.5 451.071 222.1ZM545.045 221.1C545.045 223.1 544.911 224.9 544.645 226.5H504.145C504.478 230.5 505.878 233.633 508.345 235.9C510.811 238.167 513.845 239.3 517.445 239.3C522.645 239.3 526.345 237.067 528.545 232.6H543.645C542.045 237.933 538.978 242.333 534.445 245.8C529.911 249.2 524.345 250.9 517.745 250.9C512.411 250.9 507.611 249.733 503.345 247.4C499.145 245 495.845 241.633 493.445 237.3C491.111 232.967 489.945 227.967 489.945 222.3C489.945 216.567 491.111 211.533 493.445 207.2C495.778 202.867 499.045 199.533 503.245 197.2C507.445 194.867 512.278 193.7 517.745 193.7C523.011 193.7 527.711 194.833 531.845 197.1C536.045 199.367 539.278 202.6 541.545 206.8C543.878 210.933 545.045 215.7 545.045 221.1ZM530.545 217.1C530.478 213.5 529.178 210.633 526.645 208.5C524.111 206.3 521.011 205.2 517.345 205.2C513.878 205.2 510.945 206.267 508.545 208.4C506.211 210.467 504.778 213.367 504.245 217.1H530.545Z" fill="#ffffff"/>
</svg>
