<svg width="626" height="323" viewBox="0 0 626 323" fill="none" xmlns="http://www.w3.org/2000/svg">
<path d="M89.2421 193.317C89.6587 193.108 90.118 193 90.5837 193H166.457C169.561 193 170.621 197.136 167.901 198.63L132.414 218.112C131.972 218.355 131.475 218.483 130.971 218.483H51.6184C48.4527 218.483 47.4453 214.215 50.2767 212.799L89.2421 193.317Z" fill="#3100F5"/>
<path d="M135.38 223.886C135.38 222.798 135.97 221.795 136.921 221.265L170.965 202.309C172.965 201.195 175.425 202.641 175.425 204.93V284.302C175.425 285.262 174.965 286.164 174.189 286.728L140.145 311.488C138.162 312.93 135.38 311.513 135.38 309.062V223.886Z" fill="#FC6E86"/>
<rect x="38" y="222.123" width="93.7399" height="92.8298" rx="10" fill="#FDE933"/>
<path d="M51.2421 96.8167C51.6587 96.6084 52.118 96.5 52.5837 96.5H128.457C131.561 96.5 132.621 100.636 129.901 102.13L94.4144 121.612C93.9719 121.855 93.4753 121.983 92.9706 121.983H13.6184C10.4527 121.983 9.44526 117.715 12.2767 116.299L51.2421 96.8167Z" fill="#FC6E86"/>
<path d="M97.3804 127.386C97.3804 126.298 97.9699 125.295 98.9209 124.765L132.965 105.809C134.965 104.695 137.425 106.141 137.425 108.43V187.802C137.425 188.762 136.965 189.664 136.189 190.228L102.145 214.988C100.162 216.43 97.3804 215.013 97.3804 212.562V127.386Z" fill="#FDE933"/>
<rect y="125.623" width="93.7399" height="92.8298" rx="10" fill="#3100F5"/>
<path d="M89.2421 0.316717C89.6587 0.108434 90.118 0 90.5837 0H166.457C169.561 0 170.621 4.13609 167.901 5.62974L132.414 25.1124C131.972 25.3553 131.475 25.4827 130.971 25.4827H51.6184C48.4527 25.4827 47.4453 21.2151 50.2767 19.7994L89.2421 0.316717Z" fill="#FDE933"/>
<path d="M135.38 30.8864C135.38 29.7979 135.97 28.7949 136.921 28.2653L170.965 9.30888C172.965 8.19545 175.425 9.64121 175.425 11.9299V91.3022C175.425 92.262 174.965 93.1639 174.189 93.7284L140.145 118.488C138.162 119.93 135.38 118.513 135.38 116.062V30.8864Z" fill="#3100F5"/>
<rect x="38" y="29.1231" width="93.7399" height="92.8298" rx="10" fill="#FC6E86"/>
<path d="M225.3 105.1C225.3 99.5 226.4 94.5333 228.6 90.2C230.867 85.8667 233.9 82.5333 237.7 80.2C241.567 77.8667 245.867 76.7 250.6 76.7C254.733 76.7 258.333 77.5333 261.4 79.2C264.533 80.8667 267.033 82.9667 268.9 85.5V77.6H283V133H268.9V124.9C267.1 127.5 264.6 129.667 261.4 131.4C258.267 133.067 254.633 133.9 250.5 133.9C245.833 133.9 241.567 132.7 237.7 130.3C233.9 127.9 230.867 124.533 228.6 120.2C226.4 115.8 225.3 110.767 225.3 105.1ZM268.9 105.3C268.9 101.9 268.233 99 266.9 96.6C265.567 94.1333 263.767 92.2667 261.5 91C259.233 89.6667 256.8 89 254.2 89C251.6 89 249.2 89.6333 247 90.9C244.8 92.1667 243 94.0333 241.6 96.5C240.267 98.9 239.6 101.767 239.6 105.1C239.6 108.433 240.267 111.367 241.6 113.9C243 116.367 244.8 118.267 247 119.6C249.267 120.933 251.667 121.6 254.2 121.6C256.8 121.6 259.233 120.967 261.5 119.7C263.767 118.367 265.567 116.5 266.9 114.1C268.233 111.633 268.9 108.7 268.9 105.3ZM342.673 59V133H328.673V59H342.673ZM410.205 76.7C414.339 76.7 417.972 77.5333 421.105 79.2C424.239 80.8 426.705 82.9 428.505 85.5V77.6H442.605V133.4C442.605 138.533 441.572 143.1 439.505 147.1C437.439 151.167 434.339 154.367 430.205 156.7C426.072 159.1 421.072 160.3 415.205 160.3C407.339 160.3 400.872 158.467 395.805 154.8C390.805 151.133 387.972 146.133 387.305 139.8H401.205C401.939 142.333 403.505 144.333 405.905 145.8C408.372 147.333 411.339 148.1 414.805 148.1C418.872 148.1 422.172 146.867 424.705 144.4C427.239 142 428.505 138.333 428.505 133.4V124.8C426.705 127.4 424.205 129.567 421.005 131.3C417.872 133.033 414.272 133.9 410.205 133.9C405.539 133.9 401.272 132.7 397.405 130.3C393.539 127.9 390.472 124.533 388.205 120.2C386.005 115.8 384.905 110.767 384.905 105.1C384.905 99.5 386.005 94.5333 388.205 90.2C390.472 85.8667 393.505 82.5333 397.305 80.2C401.172 77.8667 405.472 76.7 410.205 76.7ZM428.505 105.3C428.505 101.9 427.839 99 426.505 96.6C425.172 94.1333 423.372 92.2667 421.105 91C418.839 89.6667 416.405 89 413.805 89C411.205 89 408.805 89.6333 406.605 90.9C404.405 92.1667 402.605 94.0333 401.205 96.5C399.872 98.9 399.205 101.767 399.205 105.1C399.205 108.433 399.872 111.367 401.205 113.9C402.605 116.367 404.405 118.267 406.605 119.6C408.872 120.933 411.272 121.6 413.805 121.6C416.405 121.6 418.839 120.967 421.105 119.7C423.372 118.367 425.172 116.5 426.505 114.1C427.839 111.633 428.505 108.7 428.505 105.3ZM512.879 133.9C507.546 133.9 502.746 132.733 498.479 130.4C494.212 128 490.846 124.633 488.379 120.3C485.979 115.967 484.779 110.967 484.779 105.3C484.779 99.6333 486.012 94.6333 488.479 90.3C491.012 85.9667 494.446 82.6333 498.779 80.3C503.112 77.9 507.946 76.7 513.279 76.7C518.612 76.7 523.446 77.9 527.779 80.3C532.112 82.6333 535.512 85.9667 537.979 90.3C540.512 94.6333 541.779 99.6333 541.779 105.3C541.779 110.967 540.479 115.967 537.879 120.3C535.346 124.633 531.879 128 527.479 130.4C523.146 132.733 518.279 133.9 512.879 133.9ZM512.879 121.7C515.412 121.7 517.779 121.1 519.979 119.9C522.246 118.633 524.046 116.767 525.379 114.3C526.712 111.833 527.379 108.833 527.379 105.3C527.379 100.033 525.979 96 523.179 93.2C520.446 90.3333 517.079 88.9 513.079 88.9C509.079 88.9 505.712 90.3333 502.979 93.2C500.312 96 498.979 100.033 498.979 105.3C498.979 110.567 500.279 114.633 502.879 117.5C505.546 120.3 508.879 121.7 512.879 121.7Z" fill="#181818"/>
<path d="M240.728 208.7C242.528 206.033 244.995 203.867 248.128 202.2C251.328 200.533 254.961 199.7 259.028 199.7C263.761 199.7 268.028 200.867 271.828 203.2C275.695 205.533 278.728 208.867 280.928 213.2C283.195 217.467 284.328 222.433 284.328 228.1C284.328 233.767 283.195 238.8 280.928 243.2C278.728 247.533 275.695 250.9 271.828 253.3C268.028 255.7 263.761 256.9 259.028 256.9C254.895 256.9 251.261 256.1 248.128 254.5C245.061 252.833 242.595 250.7 240.728 248.1V256H226.728V182H240.728V208.7ZM270.028 228.1C270.028 224.767 269.328 221.9 267.928 219.5C266.595 217.033 264.795 215.167 262.528 213.9C260.328 212.633 257.928 212 255.328 212C252.795 212 250.395 212.667 248.128 214C245.928 215.267 244.128 217.133 242.728 219.6C241.395 222.067 240.728 224.967 240.728 228.3C240.728 231.633 241.395 234.533 242.728 237C244.128 239.467 245.928 241.367 248.128 242.7C250.395 243.967 252.795 244.6 255.328 244.6C257.928 244.6 260.328 243.933 262.528 242.6C264.795 241.267 266.595 239.367 267.928 236.9C269.328 234.433 270.028 231.5 270.028 228.1ZM340.502 182V256H326.502V182H340.502ZM410.934 256.9C405.6 256.9 400.8 255.733 396.534 253.4C392.267 251 388.9 247.633 386.434 243.3C384.034 238.967 382.834 233.967 382.834 228.3C382.834 222.633 384.067 217.633 386.534 213.3C389.067 208.967 392.5 205.633 396.834 203.3C401.167 200.9 406 199.7 411.334 199.7C416.667 199.7 421.5 200.9 425.834 203.3C430.167 205.633 433.567 208.967 436.034 213.3C438.567 217.633 439.834 222.633 439.834 228.3C439.834 233.967 438.534 238.967 435.934 243.3C433.4 247.633 429.934 251 425.534 253.4C421.2 255.733 416.334 256.9 410.934 256.9ZM410.934 244.7C413.467 244.7 415.834 244.1 418.034 242.9C420.3 241.633 422.1 239.767 423.434 237.3C424.767 234.833 425.434 231.833 425.434 228.3C425.434 223.033 424.034 219 421.234 216.2C418.5 213.333 415.134 211.9 411.134 211.9C407.134 211.9 403.767 213.333 401.034 216.2C398.367 219 397.034 223.033 397.034 228.3C397.034 233.567 398.334 237.633 400.934 240.5C403.6 243.3 406.934 244.7 410.934 244.7ZM478.503 228.3C478.503 222.567 479.67 217.567 482.003 213.3C484.336 208.967 487.57 205.633 491.703 203.3C495.836 200.9 500.57 199.7 505.903 199.7C512.77 199.7 518.436 201.433 522.903 204.9C527.436 208.3 530.47 213.1 532.003 219.3H516.903C516.103 216.9 514.736 215.033 512.803 213.7C510.936 212.3 508.603 211.6 505.803 211.6C501.803 211.6 498.636 213.067 496.303 216C493.97 218.867 492.803 222.967 492.803 228.3C492.803 233.567 493.97 237.667 496.303 240.6C498.636 243.467 501.803 244.9 505.803 244.9C511.47 244.9 515.17 242.367 516.903 237.3H532.003C530.47 243.3 527.436 248.067 522.903 251.6C518.37 255.133 512.703 256.9 505.903 256.9C500.57 256.9 495.836 255.733 491.703 253.4C487.57 251 484.336 247.667 482.003 243.4C479.67 239.067 478.503 234.033 478.503 228.3ZM607.059 256L588.259 232.4V256H574.259V182H588.259V224.1L606.859 200.6H625.059L600.659 228.4L625.259 256H607.059Z" fill="#181818"/>
</svg>
