<svg width="233" height="76" viewBox="0 0 233 76" fill="none" xmlns="http://www.w3.org/2000/svg">
<path d="M22.1986 46.5643C22.3406 46.4908 22.4982 46.4525 22.6581 46.4525H38.9081C39.9349 46.4525 40.2949 47.8147 39.4021 48.3219L32.2609 52.3789C32.1103 52.4645 31.9401 52.5095 31.7669 52.5095H14.8167C13.769 52.5095 13.4266 51.1028 14.3572 50.6213L22.1986 46.5643Z" fill="#3100F5"/>
<path d="M32.8667 53.9527C32.8667 53.5951 33.0576 53.2647 33.3675 53.0862L40.5658 48.9387C41.2324 48.5546 42.065 49.0358 42.065 49.8052V68.0183C42.065 68.3325 41.9174 68.6284 41.6663 68.8173L34.468 74.2345C33.809 74.7304 32.8667 74.2603 32.8667 73.4355V53.9527Z" fill="#FC6E86"/>
<rect x="10.498" y="53.3746" width="21.5324" height="22.0648" rx="2" fill="#FDE933"/>
<path d="M11.7007 23.6617C11.8428 23.5882 12.0004 23.5499 12.1603 23.5499H28.4103C29.4371 23.5499 29.7971 24.9122 28.9043 25.4194L21.7631 29.4764C21.6125 29.5619 21.4423 29.6069 21.2691 29.6069H4.31892C3.27116 29.6069 2.92881 28.2002 3.8594 27.7187L11.7007 23.6617Z" fill="#FC6E86"/>
<path d="M22.3687 31.0501C22.3687 30.6925 22.5596 30.3622 22.8694 30.1837L30.0677 26.0361C30.7344 25.652 31.567 26.1332 31.567 26.9026V45.1157C31.567 45.4299 31.4193 45.7258 31.1683 45.9147L23.97 51.3319C23.3109 51.8279 22.3687 51.3577 22.3687 50.5329V31.0501Z" fill="#FDE933"/>
<rect y="30.4723" width="21.5324" height="22.0648" rx="2" fill="#3100F5"/>
<path d="M22.2 0.711833C22.342 0.638349 22.4996 0.599998 22.6595 0.599998H38.9096C39.9364 0.599998 40.2963 1.96229 39.4036 2.46948L32.2623 6.52649C32.1117 6.61203 31.9415 6.657 31.7684 6.657H14.8182C13.7704 6.657 13.4281 5.25031 14.3587 4.76884L22.2 0.711833Z" fill="#FDE933"/>
<path d="M32.8687 8.1002C32.8687 7.74262 33.0596 7.41226 33.3694 7.23374L40.5677 3.08622C41.2344 2.7021 42.067 3.18327 42.067 3.95268V22.1658C42.067 22.48 41.9193 22.7759 41.6683 22.9648L34.47 28.382C33.8109 28.8779 32.8687 28.4078 32.8687 27.583V8.1002Z" fill="#3100F5"/>
<rect x="10.5" y="7.52234" width="21.5324" height="22.0648" rx="2" fill="#FC6E86"/>
<path d="M57.726 39.862C57.726 38.63 57.968 37.5373 58.452 36.584C58.9507 35.6307 59.618 34.8973 60.454 34.384C61.3047 33.8707 62.2507 33.614 63.292 33.614C64.2013 33.614 64.9933 33.7973 65.668 34.164C66.3573 34.5307 66.9073 34.9927 67.318 35.55V33.812H70.42V46H67.318V44.218C66.922 44.79 66.372 45.2667 65.668 45.648C64.9787 46.0147 64.1793 46.198 63.27 46.198C62.2433 46.198 61.3047 45.934 60.454 45.406C59.618 44.878 58.9507 44.1373 58.452 43.184C57.968 42.216 57.726 41.1087 57.726 39.862ZM67.318 39.906C67.318 39.158 67.1713 38.52 66.878 37.992C66.5847 37.4493 66.1887 37.0387 65.69 36.76C65.1913 36.4667 64.656 36.32 64.084 36.32C63.512 36.32 62.984 36.4593 62.5 36.738C62.016 37.0167 61.62 37.4273 61.312 37.97C61.0187 38.498 60.872 39.1287 60.872 39.862C60.872 40.5953 61.0187 41.2407 61.312 41.798C61.62 42.3407 62.016 42.7587 62.5 43.052C62.9987 43.3453 63.5267 43.492 64.084 43.492C64.656 43.492 65.1913 43.3527 65.69 43.074C66.1887 42.7807 66.5847 42.37 66.878 41.842C67.1713 41.2993 67.318 40.654 67.318 39.906ZM83.5482 29.72V46H80.4682V29.72H83.5482ZM98.4052 33.614C99.3145 33.614 100.114 33.7973 100.803 34.164C101.493 34.516 102.035 34.978 102.431 35.55V33.812H105.533V46.088C105.533 47.2173 105.306 48.222 104.851 49.102C104.397 49.9967 103.715 50.7007 102.805 51.214C101.896 51.742 100.796 52.006 99.5052 52.006C97.7745 52.006 96.3519 51.6027 95.2372 50.796C94.1372 49.9893 93.5139 48.8893 93.3672 47.496H96.4252C96.5865 48.0533 96.9312 48.4933 97.4592 48.816C98.0019 49.1533 98.6545 49.322 99.4172 49.322C100.312 49.322 101.038 49.0507 101.595 48.508C102.153 47.98 102.431 47.1733 102.431 46.088V44.196C102.035 44.768 101.485 45.2447 100.781 45.626C100.092 46.0073 99.2999 46.198 98.4052 46.198C97.3785 46.198 96.4399 45.934 95.5892 45.406C94.7385 44.878 94.0639 44.1373 93.5652 43.184C93.0812 42.216 92.8392 41.1087 92.8392 39.862C92.8392 38.63 93.0812 37.5373 93.5652 36.584C94.0639 35.6307 94.7312 34.8973 95.5672 34.384C96.4179 33.8707 97.3639 33.614 98.4052 33.614ZM102.431 39.906C102.431 39.158 102.285 38.52 101.991 37.992C101.698 37.4493 101.302 37.0387 100.803 36.76C100.305 36.4667 99.7692 36.32 99.1972 36.32C98.6252 36.32 98.0972 36.4593 97.6132 36.738C97.1292 37.0167 96.7332 37.4273 96.4252 37.97C96.1319 38.498 95.9852 39.1287 95.9852 39.862C95.9852 40.5953 96.1319 41.2407 96.4252 41.798C96.7332 42.3407 97.1292 42.7587 97.6132 43.052C98.1119 43.3453 98.6399 43.492 99.1972 43.492C99.7692 43.492 100.305 43.3527 100.803 43.074C101.302 42.7807 101.698 42.37 101.991 41.842C102.285 41.2993 102.431 40.654 102.431 39.906ZM120.993 46.198C119.82 46.198 118.764 45.9413 117.825 45.428C116.887 44.9 116.146 44.1593 115.603 43.206C115.075 42.2527 114.811 41.1527 114.811 39.906C114.811 38.6593 115.083 37.5593 115.625 36.606C116.183 35.6527 116.938 34.9193 117.891 34.406C118.845 33.878 119.908 33.614 121.081 33.614C122.255 33.614 123.318 33.878 124.271 34.406C125.225 34.9193 125.973 35.6527 126.515 36.606C127.073 37.5593 127.351 38.6593 127.351 39.906C127.351 41.1527 127.065 42.2527 126.493 43.206C125.936 44.1593 125.173 44.9 124.205 45.428C123.252 45.9413 122.181 46.198 120.993 46.198ZM120.993 43.514C121.551 43.514 122.071 43.382 122.555 43.118C123.054 42.8393 123.45 42.4287 123.743 41.886C124.037 41.3433 124.183 40.6833 124.183 39.906C124.183 38.7473 123.875 37.86 123.259 37.244C122.658 36.6133 121.917 36.298 121.037 36.298C120.157 36.298 119.417 36.6133 118.815 37.244C118.229 37.86 117.935 38.7473 117.935 39.906C117.935 41.0647 118.221 41.9593 118.793 42.59C119.38 43.206 120.113 43.514 120.993 43.514ZM139.731 35.594C140.127 35.0073 140.669 34.5307 141.359 34.164C142.063 33.7973 142.862 33.614 143.757 33.614C144.798 33.614 145.737 33.8707 146.573 34.384C147.423 34.8973 148.091 35.6307 148.575 36.584C149.073 37.5227 149.323 38.6153 149.323 39.862C149.323 41.1087 149.073 42.216 148.575 43.184C148.091 44.1373 147.423 44.878 146.573 45.406C145.737 45.934 144.798 46.198 143.757 46.198C142.847 46.198 142.048 46.022 141.359 45.67C140.684 45.3033 140.141 44.834 139.731 44.262V46H136.651V29.72H139.731V35.594ZM146.177 39.862C146.177 39.1287 146.023 38.498 145.715 37.97C145.421 37.4273 145.025 37.0167 144.527 36.738C144.043 36.4593 143.515 36.32 142.943 36.32C142.385 36.32 141.857 36.4667 141.359 36.76C140.875 37.0387 140.479 37.4493 140.171 37.992C139.877 38.5347 139.731 39.1727 139.731 39.906C139.731 40.6393 139.877 41.2773 140.171 41.82C140.479 42.3627 140.875 42.7807 141.359 43.074C141.857 43.3527 142.385 43.492 142.943 43.492C143.515 43.492 144.043 43.3453 144.527 43.052C145.025 42.7587 145.421 42.3407 145.715 41.798C146.023 41.2553 146.177 40.61 146.177 39.862ZM161.681 29.72V46H158.601V29.72H161.681ZM177.176 46.198C176.003 46.198 174.947 45.9413 174.008 45.428C173.069 44.9 172.329 44.1593 171.786 43.206C171.258 42.2527 170.994 41.1527 170.994 39.906C170.994 38.6593 171.265 37.5593 171.808 36.606C172.365 35.6527 173.121 34.9193 174.074 34.406C175.027 33.878 176.091 33.614 177.264 33.614C178.437 33.614 179.501 33.878 180.454 34.406C181.407 34.9193 182.155 35.6527 182.698 36.606C183.255 37.5593 183.534 38.6593 183.534 39.906C183.534 41.1527 183.248 42.2527 182.676 43.206C182.119 44.1593 181.356 44.9 180.388 45.428C179.435 45.9413 178.364 46.198 177.176 46.198ZM177.176 43.514C177.733 43.514 178.254 43.382 178.738 43.118C179.237 42.8393 179.633 42.4287 179.926 41.886C180.219 41.3433 180.366 40.6833 180.366 39.906C180.366 38.7473 180.058 37.86 179.442 37.244C178.841 36.6133 178.1 36.298 177.22 36.298C176.34 36.298 175.599 36.6133 174.998 37.244C174.411 37.86 174.118 38.7473 174.118 39.906C174.118 41.0647 174.404 41.9593 174.976 42.59C175.563 43.206 176.296 43.514 177.176 43.514ZM192.041 39.906C192.041 38.6447 192.298 37.5447 192.811 36.606C193.324 35.6527 194.036 34.9193 194.945 34.406C195.854 33.878 196.896 33.614 198.069 33.614C199.58 33.614 200.826 33.9953 201.809 34.758C202.806 35.506 203.474 36.562 203.811 37.926H200.489C200.313 37.398 200.012 36.9873 199.587 36.694C199.176 36.386 198.663 36.232 198.047 36.232C197.167 36.232 196.47 36.5547 195.957 37.2C195.444 37.8307 195.187 38.7327 195.187 39.906C195.187 41.0647 195.444 41.9667 195.957 42.612C196.47 43.2427 197.167 43.558 198.047 43.558C199.294 43.558 200.108 43.0007 200.489 41.886H203.811C203.474 43.206 202.806 44.2547 201.809 45.032C200.812 45.8093 199.565 46.198 198.069 46.198C196.896 46.198 195.854 45.9413 194.945 45.428C194.036 44.9 193.324 44.1667 192.811 43.228C192.298 42.2747 192.041 41.1673 192.041 39.906ZM220.324 46L216.188 40.808V46H213.108V29.72H216.188V38.982L220.28 33.812H224.284L218.916 39.928L224.328 46H220.324Z" fill="#363636"/>
</svg>
