<svg width="626" height="314" viewBox="0 0 626 314" fill="none" xmlns="http://www.w3.org/2000/svg">
<path d="M88.7333 184.364C89.1499 184.156 89.6092 184.047 90.075 184.047H165.948C169.052 184.047 170.113 188.183 167.392 189.677L131.906 209.16C131.463 209.402 130.967 209.53 130.462 209.53H51.1096C47.9439 209.53 46.9365 205.262 49.7679 203.847L88.7333 184.364Z" fill="#3100F5"/>
<path d="M134.872 214.933C134.872 213.845 135.461 212.842 136.412 212.312L170.456 193.356C172.456 192.242 174.916 193.688 174.916 195.977V275.349C174.916 276.309 174.457 277.211 173.68 277.775L139.636 302.535C137.653 303.977 134.872 302.561 134.872 300.109V214.933Z" fill="#FC6E86"/>
<rect x="37.4912" y="213.17" width="93.7399" height="92.8298" rx="10" fill="#FDE933"/>
<path d="M51.2421 92.3403C51.6587 92.132 52.118 92.0236 52.5837 92.0236H128.457C131.561 92.0236 132.621 96.1596 129.901 97.6533L94.4144 117.136C93.9719 117.379 93.4753 117.506 92.9706 117.506H13.6184C10.4527 117.506 9.44526 113.239 12.2767 111.823L51.2421 92.3403Z" fill="#FC6E86"/>
<path d="M97.3804 122.91C97.3804 121.821 97.9699 120.818 98.9209 120.289L132.965 101.332C134.965 100.219 137.425 101.665 137.425 103.953V183.326C137.425 184.285 136.965 185.187 136.189 185.752L102.145 210.511C100.162 211.953 97.3804 210.537 97.3804 208.085V122.91Z" fill="#FDE933"/>
<rect y="121.147" width="93.7399" height="92.8298" rx="10" fill="#3100F5"/>
<path d="M88.7333 0.316717C89.1499 0.108434 89.6092 0 90.075 0H165.948C169.052 0 170.113 4.13609 167.392 5.62974L131.906 25.1124C131.463 25.3553 130.967 25.4827 130.462 25.4827H51.1096C47.9439 25.4827 46.9365 21.2151 49.7679 19.7994L88.7333 0.316717Z" fill="#FDE933"/>
<path d="M134.872 30.8864C134.872 29.798 135.461 28.7949 136.412 28.2654L170.456 9.30891C172.456 8.19548 174.916 9.64125 174.916 11.93V91.3022C174.916 92.262 174.457 93.1639 173.68 93.7284L139.636 118.488C137.653 119.93 134.872 118.514 134.872 116.062V30.8864Z" fill="#3100F5"/>
<rect x="37.4912" y="29.1232" width="93.7399" height="92.8298" rx="10" fill="#FC6E86"/>
<path d="M225.3 96.1C225.3 90.5 226.4 85.5333 228.6 81.2C230.867 76.8667 233.9 73.5333 237.7 71.2C241.567 68.8667 245.867 67.7 250.6 67.7C254.733 67.7 258.333 68.5333 261.4 70.2C264.533 71.8667 267.033 73.9667 268.9 76.5V68.6H283V124H268.9V115.9C267.1 118.5 264.6 120.667 261.4 122.4C258.267 124.067 254.633 124.9 250.5 124.9C245.833 124.9 241.567 123.7 237.7 121.3C233.9 118.9 230.867 115.533 228.6 111.2C226.4 106.8 225.3 101.767 225.3 96.1ZM268.9 96.3C268.9 92.9 268.233 90 266.9 87.6C265.567 85.1333 263.767 83.2667 261.5 82C259.233 80.6667 256.8 80 254.2 80C251.6 80 249.2 80.6333 247 81.9C244.8 83.1667 243 85.0333 241.6 87.5C240.267 89.9 239.6 92.7667 239.6 96.1C239.6 99.4333 240.267 102.367 241.6 104.9C243 107.367 244.8 109.267 247 110.6C249.267 111.933 251.667 112.6 254.2 112.6C256.8 112.6 259.233 111.967 261.5 110.7C263.767 109.367 265.567 107.5 266.9 105.1C268.233 102.633 268.9 99.7 268.9 96.3ZM342.673 50V124H328.673V50H342.673ZM410.205 67.7C414.339 67.7 417.972 68.5333 421.105 70.2C424.239 71.8 426.705 73.9 428.505 76.5V68.6H442.605V124.4C442.605 129.533 441.572 134.1 439.505 138.1C437.439 142.167 434.339 145.367 430.205 147.7C426.072 150.1 421.072 151.3 415.205 151.3C407.339 151.3 400.872 149.467 395.805 145.8C390.805 142.133 387.972 137.133 387.305 130.8H401.205C401.939 133.333 403.505 135.333 405.905 136.8C408.372 138.333 411.339 139.1 414.805 139.1C418.872 139.1 422.172 137.867 424.705 135.4C427.239 133 428.505 129.333 428.505 124.4V115.8C426.705 118.4 424.205 120.567 421.005 122.3C417.872 124.033 414.272 124.9 410.205 124.9C405.539 124.9 401.272 123.7 397.405 121.3C393.539 118.9 390.472 115.533 388.205 111.2C386.005 106.8 384.905 101.767 384.905 96.1C384.905 90.5 386.005 85.5333 388.205 81.2C390.472 76.8667 393.505 73.5333 397.305 71.2C401.172 68.8667 405.472 67.7 410.205 67.7ZM428.505 96.3C428.505 92.9 427.839 90 426.505 87.6C425.172 85.1333 423.372 83.2667 421.105 82C418.839 80.6667 416.405 80 413.805 80C411.205 80 408.805 80.6333 406.605 81.9C404.405 83.1667 402.605 85.0333 401.205 87.5C399.872 89.9 399.205 92.7667 399.205 96.1C399.205 99.4333 399.872 102.367 401.205 104.9C402.605 107.367 404.405 109.267 406.605 110.6C408.872 111.933 411.272 112.6 413.805 112.6C416.405 112.6 418.839 111.967 421.105 110.7C423.372 109.367 425.172 107.5 426.505 105.1C427.839 102.633 428.505 99.7 428.505 96.3ZM512.879 124.9C507.546 124.9 502.746 123.733 498.479 121.4C494.212 119 490.846 115.633 488.379 111.3C485.979 106.967 484.779 101.967 484.779 96.3C484.779 90.6333 486.012 85.6333 488.479 81.3C491.012 76.9667 494.446 73.6333 498.779 71.3C503.112 68.9 507.946 67.7 513.279 67.7C518.612 67.7 523.446 68.9 527.779 71.3C532.112 73.6333 535.512 76.9667 537.979 81.3C540.512 85.6333 541.779 90.6333 541.779 96.3C541.779 101.967 540.479 106.967 537.879 111.3C535.346 115.633 531.879 119 527.479 121.4C523.146 123.733 518.279 124.9 512.879 124.9ZM512.879 112.7C515.412 112.7 517.779 112.1 519.979 110.9C522.246 109.633 524.046 107.767 525.379 105.3C526.712 102.833 527.379 99.8333 527.379 96.3C527.379 91.0333 525.979 87 523.179 84.2C520.446 81.3333 517.079 79.9 513.079 79.9C509.079 79.9 505.712 81.3333 502.979 84.2C500.312 87 498.979 91.0333 498.979 96.3C498.979 101.567 500.279 105.633 502.879 108.5C505.546 111.3 508.879 112.7 512.879 112.7Z" fill="#3F3D56"/>
<path d="M240.728 199.7C242.528 197.033 244.995 194.867 248.128 193.2C251.328 191.533 254.961 190.7 259.028 190.7C263.761 190.7 268.028 191.867 271.828 194.2C275.695 196.533 278.728 199.867 280.928 204.2C283.195 208.467 284.328 213.433 284.328 219.1C284.328 224.767 283.195 229.8 280.928 234.2C278.728 238.533 275.695 241.9 271.828 244.3C268.028 246.7 263.761 247.9 259.028 247.9C254.895 247.9 251.261 247.1 248.128 245.5C245.061 243.833 242.595 241.7 240.728 239.1V247H226.728V173H240.728V199.7ZM270.028 219.1C270.028 215.767 269.328 212.9 267.928 210.5C266.595 208.033 264.795 206.167 262.528 204.9C260.328 203.633 257.928 203 255.328 203C252.795 203 250.395 203.667 248.128 205C245.928 206.267 244.128 208.133 242.728 210.6C241.395 213.067 240.728 215.967 240.728 219.3C240.728 222.633 241.395 225.533 242.728 228C244.128 230.467 245.928 232.367 248.128 233.7C250.395 234.967 252.795 235.6 255.328 235.6C257.928 235.6 260.328 234.933 262.528 233.6C264.795 232.267 266.595 230.367 267.928 227.9C269.328 225.433 270.028 222.5 270.028 219.1ZM340.502 173V247H326.502V173H340.502ZM410.934 247.9C405.6 247.9 400.8 246.733 396.534 244.4C392.267 242 388.9 238.633 386.434 234.3C384.034 229.967 382.834 224.967 382.834 219.3C382.834 213.633 384.067 208.633 386.534 204.3C389.067 199.967 392.5 196.633 396.834 194.3C401.167 191.9 406 190.7 411.334 190.7C416.667 190.7 421.5 191.9 425.834 194.3C430.167 196.633 433.567 199.967 436.034 204.3C438.567 208.633 439.834 213.633 439.834 219.3C439.834 224.967 438.534 229.967 435.934 234.3C433.4 238.633 429.934 242 425.534 244.4C421.2 246.733 416.334 247.9 410.934 247.9ZM410.934 235.7C413.467 235.7 415.834 235.1 418.034 233.9C420.3 232.633 422.1 230.767 423.434 228.3C424.767 225.833 425.434 222.833 425.434 219.3C425.434 214.033 424.034 210 421.234 207.2C418.5 204.333 415.134 202.9 411.134 202.9C407.134 202.9 403.767 204.333 401.034 207.2C398.367 210 397.034 214.033 397.034 219.3C397.034 224.567 398.334 228.633 400.934 231.5C403.6 234.3 406.934 235.7 410.934 235.7ZM478.503 219.3C478.503 213.567 479.67 208.567 482.003 204.3C484.336 199.967 487.57 196.633 491.703 194.3C495.836 191.9 500.57 190.7 505.903 190.7C512.77 190.7 518.436 192.433 522.903 195.9C527.436 199.3 530.47 204.1 532.003 210.3H516.903C516.103 207.9 514.736 206.033 512.803 204.7C510.936 203.3 508.603 202.6 505.803 202.6C501.803 202.6 498.636 204.067 496.303 207C493.97 209.867 492.803 213.967 492.803 219.3C492.803 224.567 493.97 228.667 496.303 231.6C498.636 234.467 501.803 235.9 505.803 235.9C511.47 235.9 515.17 233.367 516.903 228.3H532.003C530.47 234.3 527.436 239.067 522.903 242.6C518.37 246.133 512.703 247.9 505.903 247.9C500.57 247.9 495.836 246.733 491.703 244.4C487.57 242 484.336 238.667 482.003 234.4C479.67 230.067 478.503 225.033 478.503 219.3ZM607.059 247L588.259 223.4V247H574.259V173H588.259V215.1L606.859 191.6H625.059L600.659 219.4L625.259 247H607.059Z" fill="#3F3D56"/>
</svg>
